# xmcd
#
# Track frame offsets:
#	150
#	10793
#	23739
#	33730
#	44920
#	56097
#	66061
#	78653
#	92448
#	102084
#	111091
#	122552
#	133549
#	143741
#	154839
#	164738
#	176486
#	186366
#	197266
#	211573
#	223595
#	235179
#	246469
#	256661
#	268160
#	277213
#	290528
#	301463
#	311285
#	327068
#	336403
#	346319
#	354366
#	363874
#	376069
#
# Disc length: 5142 seconds
# Revision: 4
# Processed by: cddbd v1.5.2PL0 Copyright (c) Steve Scherf et al.
# Submitted via: dBpowerAMP V12.0
#
DISCID=08141423
DTITLE=Buck Owens - Open Up Your Heart: The Buck Owens and the Buckaroos Recordings 1965-1968, CD02 - CD07
DYEAR=2010
DGENRE=Country
TTITLE0=Waitin' in Your Welfare Line
TTITLE1=That's What I'm Like Without You
TTITLE2=There Never Was a Fool
TTITLE3=In the Palm of Your Hand
TTITLE4=After You Leave Me [Remake]
TTITLE5=A Devil Like Me (Needs an Angel Like You)
TTITLE6=Cinderella
TTITLE7=I'll Go to Church Again with Momma
TTITLE8=Pray Every Day
TTITLE9=Love's Gonna Live Here
TTITLE10=Together Again
TTITLE11=Act Naturally
TTITLE12=I've Got a Tiger by the Tail
TTITLE13=My Heart Skips a Beat
TTITLE14=I Don't Care (Just as Long As You Love Me)
TTITLE15=Foolin' Around
TTITLE16=Before You Go
TTITLE17=Second Fiddle
TTITLE18=Under Your Spell Again
TTITLE19=Don't Let Her Know
TTITLE20=Together Again
TTITLE21=Only You (Can Break My Heart)
TTITLE22=When Jesus Calls All His Children In
TTITLE23=It Was with Love
TTITLE24=Would You Be Ready
TTITLE25=Eternal Vacation
TTITLE26=Jesus Saved Me
TTITLE27=Where Would I Be Without Jesus
TTITLE28=Dust on Mother's Bible
TTITLE29=Satan's Gotta Get Along Without Me
TTITLE30=Tom Cattin' [Remake]
TTITLE31=Cajun Fiddle [Remake]
TTITLE32=You Made a Monkey Out of Me
TTITLE33=Congratulations, You're Absolutely Right
TTITLE34=You, You, Only You
EXTD=
EXTT0=
EXTT1=
EXTT2=
EXTT3=
EXTT4=
EXTT5=
EXTT6=
EXTT7=
EXTT8=
EXTT9=
EXTT10=
EXTT11=
EXTT12=
EXTT13=
EXTT14=
EXTT15=
EXTT16=
EXTT17=
EXTT18=
EXTT19=
EXTT20=
EXTT21=
EXTT22=
EXTT23=
EXTT24=
EXTT25=
EXTT26=
EXTT27=
EXTT28=
EXTT29=
EXTT30=
EXTT31=
EXTT32=
EXTT33=
EXTT34=
PLAYORDER=
